solid OpenSCAD_Model
  facet normal -0.5 0 -0.866025
    outer loop
      vertex 15.5 0.00592041 37.3205
      vertex 17.232 3 36.3205
      vertex 17.232 0.00592041 36.3205
    endloop
  endfacet
  facet normal -0.5 0 -0.866025
    outer loop
      vertex 17.232 3 36.3205
      vertex 15.5 0.00592041 37.3205
      vertex 15.5 3 37.3205
    endloop
  endfacet
  facet normal -0.866025 0 0.5
    outer loop
      vertex 7.23205 0.00592041 19
      vertex 17.232 3 36.3205
      vertex 7.23205 3 19
    endloop
  endfacet
  facet normal -0.866025 0 0.5
    outer loop
      vertex 17.232 3 36.3205
      vertex 7.23205 0.00592041 19
      vertex 17.232 0.00592041 36.3205
    endloop
  endfacet
  facet normal 0.5 0 0.866025
    outer loop
      vertex 5.5 3 20
      vertex 7.23205 0.00592041 19
      vertex 7.23205 3 19
    endloop
  endfacet
  facet normal 0.5 0 0.866025
    outer loop
      vertex 7.23205 0.00592041 19
      vertex 5.5 3 20
      vertex 5.5 0.00592041 20
    endloop
  endfacet
  facet normal 0.866025 0 -0.5
    outer loop
      vertex 15.5 0.00592041 37.3205
      vertex 5.5 3 20
      vertex 15.5 3 37.3205
    endloop
  endfacet
  facet normal 0.866025 0 -0.5
    outer loop
      vertex 5.5 3 20
      vertex 15.5 0.00592041 37.3205
      vertex 5.5 0.00592041 20
    endloop
  endfacet
  facet normal 0 1 0
    outer loop
      vertex 8 3 3
      vertex 22.232 3 19
      vertex 39 3 3
    endloop
  endfacet
  facet normal 0 1 0
    outer loop
      vertex 22.232 3 19
      vertex 8 3 3
      vertex 8 3 11
    endloop
  endfacet
  facet normal 0 1 0
    outer loop
      vertex 20.5 3 37.3205
      vertex 17.232 3 36.3205
      vertex 15.5 3 37.3205
    endloop
  endfacet
  facet normal 0 1 0
    outer loop
      vertex 10.5 3 20
      vertex 17.232 3 36.3205
      vertex 20.5 3 37.3205
    endloop
  endfacet
  facet normal 0 1 -0
    outer loop
      vertex 10.5 3 20
      vertex 7.23205 3 19
      vertex 17.232 3 36.3205
    endloop
  endfacet
  facet normal 0 1 0
    outer loop
      vertex 7.23205 3 19
      vertex 10.5 3 20
      vertex 12.232 3 19
    endloop
  endfacet
  facet normal 0 1 0
    outer loop
      vertex 25.5 3 37.3205
      vertex 22.232 3 36.3205
      vertex 20.5 3 37.3205
    endloop
  endfacet
  facet normal 0 1 0
    outer loop
      vertex 15.5 3 20
      vertex 22.232 3 36.3205
      vertex 25.5 3 37.3205
    endloop
  endfacet
  facet normal 0 1 -0
    outer loop
      vertex 15.5 3 20
      vertex 12.232 3 19
      vertex 22.232 3 36.3205
    endloop
  endfacet
  facet normal 0 1 0
    outer loop
      vertex 12.232 3 19
      vertex 15.5 3 20
      vertex 17.232 3 19
    endloop
  endfacet
  facet normal 0 1 0
    outer loop
      vertex 30.5 3 37.3205
      vertex 27.232 3 36.3205
      vertex 25.5 3 37.3205
    endloop
  endfacet
  facet normal 0 1 0
    outer loop
      vertex 20.5 3 20
      vertex 27.232 3 36.3205
      vertex 30.5 3 37.3205
    endloop
  endfacet
  facet normal 0 1 -0
    outer loop
      vertex 20.5 3 20
      vertex 17.232 3 19
      vertex 27.232 3 36.3205
    endloop
  endfacet
  facet normal 0 1 0
    outer loop
      vertex 17.232 3 19
      vertex 20.5 3 20
      vertex 22.232 3 19
    endloop
  endfacet
  facet normal 0 1 0
    outer loop
      vertex 35.5 3 37.3205
      vertex 32.232 3 36.3205
      vertex 30.5 3 37.3205
    endloop
  endfacet
  facet normal 0 1 0
    outer loop
      vertex 25.5 3 20
      vertex 32.232 3 36.3205
      vertex 35.5 3 37.3205
    endloop
  endfacet
  facet normal 0 1 -0
    outer loop
      vertex 25.5 3 20
      vertex 22.232 3 19
      vertex 32.232 3 36.3205
    endloop
  endfacet
  facet normal 0 1 0
    outer loop
      vertex 22.232 3 19
      vertex 25.5 3 20
      vertex 27.232 3 19
    endloop
  endfacet
  facet normal 0 1 0
    outer loop
      vertex 40.5 3 37.3205
      vertex 37.232 3 36.3205
      vertex 35.5 3 37.3205
    endloop
  endfacet
  facet normal 0 1 0
    outer loop
      vertex 30.5 3 20
      vertex 37.232 3 36.3205
      vertex 40.5 3 37.3205
    endloop
  endfacet
  facet normal 0 1 -0
    outer loop
      vertex 30.5 3 20
      vertex 27.232 3 19
      vertex 37.232 3 36.3205
    endloop
  endfacet
  facet normal 0 1 0
    outer loop
      vertex 27.232 3 19
      vertex 30.5 3 20
      vertex 32.232 3 19
    endloop
  endfacet
  facet normal 0 1 0
    outer loop
      vertex 35.5 3 37.3205
      vertex 44 3 76
      vertex 40.5 3 37.3205
    endloop
  endfacet
  facet normal 0 1 0
    outer loop
      vertex 44 3 76
      vertex 42.232 3 36.3205
      vertex 40.5 3 37.3205
    endloop
  endfacet
  facet normal 0 1 0
    outer loop
      vertex 39 3 11
      vertex 27.232 3 19
      vertex 32.232 3 19
    endloop
  endfacet
  facet normal 0 1 -0
    outer loop
      vertex 39 3 3
      vertex 27.232 3 19
      vertex 39 3 11
    endloop
  endfacet
  facet normal 0 1 0
    outer loop
      vertex 27.232 3 19
      vertex 39 3 3
      vertex 22.232 3 19
    endloop
  endfacet
  facet normal 0 1 0
    outer loop
      vertex 17.232 3 19
      vertex 8 3 11
      vertex 12.232 3 19
    endloop
  endfacet
  facet normal 0 1 -0
    outer loop
      vertex 39 3 11
      vertex 32.232 3 19
      vertex 44 3 11
    endloop
  endfacet
  facet normal 0 1 0
    outer loop
      vertex 42.232 3 36.3205
      vertex 44 3 11
      vertex 32.232 3 19
    endloop
  endfacet
  facet normal 0 1 -0
    outer loop
      vertex 44 3 11
      vertex 42.232 3 36.3205
      vertex 44 3 76
    endloop
  endfacet
  facet normal 0 1 0
    outer loop
      vertex 30.5 3 37.3205
      vertex 44 3 76
      vertex 35.5 3 37.3205
    endloop
  endfacet
  facet normal 0 1 0
    outer loop
      vertex 25.5 3 37.3205
      vertex 44 3 76
      vertex 30.5 3 37.3205
    endloop
  endfacet
  facet normal 0 1 0
    outer loop
      vertex 44 3 76
      vertex 25.5 3 37.3205
      vertex 3 3 76
    endloop
  endfacet
  facet normal 0 1 -0
    outer loop
      vertex 20.5 3 37.3205
      vertex 3 3 76
      vertex 25.5 3 37.3205
    endloop
  endfacet
  facet normal 0 1 -0
    outer loop
      vertex 15.5 3 37.3205
      vertex 3 3 76
      vertex 20.5 3 37.3205
    endloop
  endfacet
  facet normal 0 1 -0
    outer loop
      vertex 5.5 3 20
      vertex 3 3 76
      vertex 15.5 3 37.3205
    endloop
  endfacet
  facet normal 0 1 0
    outer loop
      vertex 22.232 3 19
      vertex 8 3 11
      vertex 17.232 3 19
    endloop
  endfacet
  facet normal 0 1 0
    outer loop
      vertex 12.232 3 19
      vertex 8 3 11
      vertex 7.23205 3 19
    endloop
  endfacet
  facet normal 0 1 0
    outer loop
      vertex 3 3 11
      vertex 7.23205 3 19
      vertex 8 3 11
    endloop
  endfacet
  facet normal 0 1 0
    outer loop
      vertex 5.5 3 20
      vertex 3 3 11
      vertex 3 3 76
    endloop
  endfacet
  facet normal 0 1 0
    outer loop
      vertex 7.23205 3 19
      vertex 3 3 11
      vertex 5.5 3 20
    endloop
  endfacet
  facet normal -0.5 0 -0.866025
    outer loop
      vertex 20.5 0.00592041 37.3205
      vertex 22.232 3 36.3205
      vertex 22.232 0.00592041 36.3205
    endloop
  endfacet
  facet normal -0.5 0 -0.866025
    outer loop
      vertex 22.232 3 36.3205
      vertex 20.5 0.00592041 37.3205
      vertex 20.5 3 37.3205
    endloop
  endfacet
  facet normal -0.866025 0 0.5
    outer loop
      vertex 12.232 0.00592041 19
      vertex 22.232 3 36.3205
      vertex 12.232 3 19
    endloop
  endfacet
  facet normal -0.866025 0 0.5
    outer loop
      vertex 22.232 3 36.3205
      vertex 12.232 0.00592041 19
      vertex 22.232 0.00592041 36.3205
    endloop
  endfacet
  facet normal 0.5 0 0.866025
    outer loop
      vertex 10.5 3 20
      vertex 12.232 0.00592041 19
      vertex 12.232 3 19
    endloop
  endfacet
  facet normal 0.5 0 0.866025
    outer loop
      vertex 12.232 0.00592041 19
      vertex 10.5 3 20
      vertex 10.5 0.00592041 20
    endloop
  endfacet
  facet normal 0.866025 0 -0.5
    outer loop
      vertex 20.5 0.00592041 37.3205
      vertex 10.5 3 20
      vertex 20.5 3 37.3205
    endloop
  endfacet
  facet normal 0.866025 0 -0.5
    outer loop
      vertex 10.5 3 20
      vertex 20.5 0.00592041 37.3205
      vertex 10.5 0.00592041 20
    endloop
  endfacet
  facet normal 0.866025 0 -0.5
    outer loop
      vertex 25.5 0.00592041 37.3205
      vertex 15.5 3 20
      vertex 25.5 3 37.3205
    endloop
  endfacet
  facet normal 0.866025 0 -0.5
    outer loop
      vertex 15.5 3 20
      vertex 25.5 0.00592041 37.3205
      vertex 15.5 0.00592041 20
    endloop
  endfacet
  facet normal -0.5 0 -0.866025
    outer loop
      vertex 25.5 0.00592041 37.3205
      vertex 27.232 3 36.3205
      vertex 27.232 0.00592041 36.3205
    endloop
  endfacet
  facet normal -0.5 0 -0.866025
    outer loop
      vertex 27.232 3 36.3205
      vertex 25.5 0.00592041 37.3205
      vertex 25.5 3 37.3205
    endloop
  endfacet
  facet normal -0.866025 0 0.5
    outer loop
      vertex 17.232 0.00592041 19
      vertex 27.232 3 36.3205
      vertex 17.232 3 19
    endloop
  endfacet
  facet normal -0.866025 0 0.5
    outer loop
      vertex 27.232 3 36.3205
      vertex 17.232 0.00592041 19
      vertex 27.232 0.00592041 36.3205
    endloop
  endfacet
  facet normal 0.5 0 0.866025
    outer loop
      vertex 15.5 3 20
      vertex 17.232 0.00592041 19
      vertex 17.232 3 19
    endloop
  endfacet
  facet normal 0.5 0 0.866025
    outer loop
      vertex 17.232 0.00592041 19
      vertex 15.5 3 20
      vertex 15.5 0.00592041 20
    endloop
  endfacet
  facet normal 0.866025 0 -0.5
    outer loop
      vertex 30.5 0.00592041 37.3205
      vertex 20.5 3 20
      vertex 30.5 3 37.3205
    endloop
  endfacet
  facet normal 0.866025 0 -0.5
    outer loop
      vertex 20.5 3 20
      vertex 30.5 0.00592041 37.3205
      vertex 20.5 0.00592041 20
    endloop
  endfacet
  facet normal -0.500001 0 -0.866025
    outer loop
      vertex 30.5 0.00592041 37.3205
      vertex 32.232 3 36.3205
      vertex 32.232 0.00592041 36.3205
    endloop
  endfacet
  facet normal -0.500001 0 -0.866025
    outer loop
      vertex 32.232 3 36.3205
      vertex 30.5 0.00592041 37.3205
      vertex 30.5 3 37.3205
    endloop
  endfacet
  facet normal -0.866025 0 0.5
    outer loop
      vertex 22.232 0.00592041 19
      vertex 32.232 3 36.3205
      vertex 22.232 3 19
    endloop
  endfacet
  facet normal -0.866025 0 0.5
    outer loop
      vertex 32.232 3 36.3205
      vertex 22.232 0.00592041 19
      vertex 32.232 0.00592041 36.3205
    endloop
  endfacet
  facet normal 0.5 0 0.866025
    outer loop
      vertex 20.5 3 20
      vertex 22.232 0.00592041 19
      vertex 22.232 3 19
    endloop
  endfacet
  facet normal 0.5 0 0.866025
    outer loop
      vertex 22.232 0.00592041 19
      vertex 20.5 3 20
      vertex 20.5 0.00592041 20
    endloop
  endfacet
  facet normal 0.866025 0 -0.5
    outer loop
      vertex 35.5 0.00592041 37.3205
      vertex 25.5 3 20
      vertex 35.5 3 37.3205
    endloop
  endfacet
  facet normal 0.866025 0 -0.5
    outer loop
      vertex 25.5 3 20
      vertex 35.5 0.00592041 37.3205
      vertex 25.5 0.00592041 20
    endloop
  endfacet
  facet normal -0.500001 0 -0.866025
    outer loop
      vertex 35.5 0.00592041 37.3205
      vertex 37.232 3 36.3205
      vertex 37.232 0.00592041 36.3205
    endloop
  endfacet
  facet normal -0.500001 0 -0.866025
    outer loop
      vertex 37.232 3 36.3205
      vertex 35.5 0.00592041 37.3205
      vertex 35.5 3 37.3205
    endloop
  endfacet
  facet normal -0.866025 0 0.5
    outer loop
      vertex 27.232 0.00592041 19
      vertex 37.232 3 36.3205
      vertex 27.232 3 19
    endloop
  endfacet
  facet normal -0.866025 0 0.5
    outer loop
      vertex 37.232 3 36.3205
      vertex 27.232 0.00592041 19
      vertex 37.232 0.00592041 36.3205
    endloop
  endfacet
  facet normal 0.5 0 0.866025
    outer loop
      vertex 25.5 3 20
      vertex 27.232 0.00592041 19
      vertex 27.232 3 19
    endloop
  endfacet
  facet normal 0.5 0 0.866025
    outer loop
      vertex 27.232 0.00592041 19
      vertex 25.5 3 20
      vertex 25.5 0.00592041 20
    endloop
  endfacet
  facet normal 0.866025 0 -0.5
    outer loop
      vertex 40.5 0.00592041 37.3205
      vertex 30.5 3 20
      vertex 40.5 3 37.3205
    endloop
  endfacet
  facet normal 0.866025 0 -0.5
    outer loop
      vertex 30.5 3 20
      vertex 40.5 0.00592041 37.3205
      vertex 30.5 0.00592041 20
    endloop
  endfacet
  facet normal -0.500001 0 -0.866025
    outer loop
      vertex 40.5 0.00592041 37.3205
      vertex 42.232 3 36.3205
      vertex 42.232 0.00592041 36.3205
    endloop
  endfacet
  facet normal -0.500001 0 -0.866025
    outer loop
      vertex 42.232 3 36.3205
      vertex 40.5 0.00592041 37.3205
      vertex 40.5 3 37.3205
    endloop
  endfacet
  facet normal -0.866025 0 0.5
    outer loop
      vertex 32.232 0.00592041 19
      vertex 42.232 3 36.3205
      vertex 32.232 3 19
    endloop
  endfacet
  facet normal -0.866025 0 0.5
    outer loop
      vertex 42.232 3 36.3205
      vertex 32.232 0.00592041 19
      vertex 42.232 0.00592041 36.3205
    endloop
  endfacet
  facet normal 0.500001 0 0.866025
    outer loop
      vertex 30.5 3 20
      vertex 32.232 0.00592041 19
      vertex 32.232 3 19
    endloop
  endfacet
  facet normal 0.500001 0 0.866025
    outer loop
      vertex 32.232 0.00592041 19
      vertex 30.5 3 20
      vertex 30.5 0.00592041 20
    endloop
  endfacet
  facet normal 1 -0 0
    outer loop
      vertex 47 3 76
      vertex 47 23 0
      vertex 47 23 76
    endloop
  endfacet
  facet normal 1 0 0
    outer loop
      vertex 47 23 0
      vertex 47 3 76
      vertex 47 3 0
    endloop
  endfacet
  facet normal -0.968583 -0.24869 0
    outer loop
      vertex 0.210671 1.89563 0
      vertex 0.0236568 2.624 76
      vertex 0.0236568 2.624 0
    endloop
  endfacet
  facet normal -0.968583 -0.24869 0
    outer loop
      vertex 0.0236568 2.624 76
      vertex 0.210671 1.89563 0
      vertex 0.210671 1.89563 76
    endloop
  endfacet
  facet normal 0.992115 -0.125332 0
    outer loop
      vertex 46.9058 2.25393 76
      vertex 47 3 0
      vertex 47 3 76
    endloop
  endfacet
  facet normal 0.992115 -0.125332 0
    outer loop
      vertex 47 3 0
      vertex 46.9058 2.25393 76
      vertex 46.9058 2.25393 0
    endloop
  endfacet
  facet normal -1 0 0
    outer loop
      vertex 0.0236568 2.624 0
      vertex 0.0236568 23.376 76
      vertex 0.0236568 23.376 0
    endloop
  endfacet
  facet normal -1 -0 0
    outer loop
      vertex 0.0236568 23.376 76
      vertex 0.0236568 2.624 0
      vertex 0.0236568 2.624 76
    endloop
  endfacet
  facet normal 0 0 1
    outer loop
      vertex 44 23 76
      vertex 47 23 76
      vertex 46.9058 23.7461 76
    endloop
  endfacet
  facet normal 0 0 1
    outer loop
      vertex 47 23 76
      vertex 44 23 76
      vertex 47 3 76
    endloop
  endfacet
  facet normal 0 0 1
    outer loop
      vertex 44 23 76
      vertex 46.9058 23.7461 76
      vertex 46.6289 24.4453 76
    endloop
  endfacet
  facet normal 0 0 1
    outer loop
      vertex 44 3 76
      vertex 47 3 76
      vertex 44 23 76
    endloop
  endfacet
  facet normal 0 0 1
    outer loop
      vertex 44 23 76
      vertex 46.6289 24.4453 76
      vertex 46.1869 25.0536 76
    endloop
  endfacet
  facet normal 0 0 1
    outer loop
      vertex 47 3 76
      vertex 44 3 76
      vertex 46.9058 2.25393 76
    endloop
  endfacet
  facet normal 0 0 1
    outer loop
      vertex 44 23 76
      vertex 46.1869 25.0536 76
      vertex 45.6075 25.533 76
    endloop
  endfacet
  facet normal 0 0 1
    outer loop
      vertex 46.9058 2.25393 76
      vertex 44 3 76
      vertex 46.6289 1.55474 76
    endloop
  endfacet
  facet normal 0 0 1
    outer loop
      vertex 44 23 76
      vertex 45.6075 25.533 76
      vertex 44.9271 25.8532 76
    endloop
  endfacet
  facet normal 0 0 1
    outer loop
      vertex 46.6289 1.55474 76
      vertex 44 3 76
      vertex 46.1869 0.94636 76
    endloop
  endfacet
  facet normal 0 0 1
    outer loop
      vertex 44 23 76
      vertex 44.9271 25.8532 76
      vertex 44.1884 25.9941 76
    endloop
  endfacet
  facet normal 0 0 1
    outer loop
      vertex 46.1869 0.94636 76
      vertex 44 3 76
      vertex 45.6075 0.467017 76
    endloop
  endfacet
  facet normal 0 0 1
    outer loop
      vertex 45.6075 0.467017 76
      vertex 44 3 76
      vertex 44.9271 0.146831 76
    endloop
  endfacet
  facet normal -0 0 1
    outer loop
      vertex 3.18837 25.9941 76
      vertex 44 23 76
      vertex 44.1884 25.9941 76
    endloop
  endfacet
  facet normal 0 0 1
    outer loop
      vertex 3.18837 25.9941 76
      vertex 3 23 76
      vertex 44 23 76
    endloop
  endfacet
  facet normal -0 0 1
    outer loop
      vertex 1.72266 25.7145 76
      vertex 3 23 76
      vertex 2.43786 25.9469 76
    endloop
  endfacet
  facet normal -0 0 1
    outer loop
      vertex 2.43786 25.9469 76
      vertex 3 23 76
      vertex 3.18837 25.9941 76
    endloop
  endfacet
  facet normal 0 0 1
    outer loop
      vertex 44.9271 0.146831 76
      vertex 44 3 76
      vertex 44.1884 0.00592041 76
    endloop
  endfacet
  facet normal 0 0 1
    outer loop
      vertex 44 3 76
      vertex 3.18837 0.00592041 76
      vertex 44.1884 0.00592041 76
    endloop
  endfacet
  facet normal -0 0 1
    outer loop
      vertex 3 3 76
      vertex 3.18837 0.00592041 76
      vertex 44 3 76
    endloop
  endfacet
  facet normal 0 0 1
    outer loop
      vertex 3 3 76
      vertex 2.43786 0.0531387 76
      vertex 3.18837 0.00592041 76
    endloop
  endfacet
  facet normal 0 0 1
    outer loop
      vertex 3 23 76
      vertex 0.0236568 23.376 76
      vertex 3 3 76
    endloop
  endfacet
  facet normal -0 0 1
    outer loop
      vertex 1.08773 25.3115 76
      vertex 3 23 76
      vertex 1.72266 25.7145 76
    endloop
  endfacet
  facet normal 0 0 1
    outer loop
      vertex 0.0236568 2.624 76
      vertex 3 3 76
      vertex 0.0236568 23.376 76
    endloop
  endfacet
  facet normal -0 0 1
    outer loop
      vertex 0.572949 24.7634 76
      vertex 3 23 76
      vertex 1.08773 25.3115 76
    endloop
  endfacet
  facet normal 0 -0 1
    outer loop
      vertex 0.210671 1.89563 76
      vertex 3 3 76
      vertex 0.0236568 2.624 76
    endloop
  endfacet
  facet normal -0 0 1
    outer loop
      vertex 0.210671 24.1044 76
      vertex 3 23 76
      vertex 0.572949 24.7634 76
    endloop
  endfacet
  facet normal 0 0 1
    outer loop
      vertex 3 3 76
      vertex 1.72266 0.28552 76
      vertex 2.43786 0.0531387 76
    endloop
  endfacet
  facet normal 0 0 1
    outer loop
      vertex 3 23 76
      vertex 0.210671 24.1044 76
      vertex 0.0236568 23.376 76
    endloop
  endfacet
  facet normal 0 0 1
    outer loop
      vertex 3 3 76
      vertex 1.08773 0.68846 76
      vertex 1.72266 0.28552 76
    endloop
  endfacet
  facet normal 0 0 1
    outer loop
      vertex 3 3 76
      vertex 0.572949 1.23664 76
      vertex 1.08773 0.68846 76
    endloop
  endfacet
  facet normal 0 0 1
    outer loop
      vertex 3 3 76
      vertex 0.210671 1.89563 76
      vertex 0.572949 1.23664 76
    endloop
  endfacet
  facet normal 0 -1 0
    outer loop
      vertex 37.232 0.00592041 36.3205
      vertex 40.5 0.00592041 37.3205
      vertex 35.5 0.00592041 37.3205
    endloop
  endfacet
  facet normal 0 -1 -0
    outer loop
      vertex 37.232 0.00592041 36.3205
      vertex 30.5 0.00592041 20
      vertex 40.5 0.00592041 37.3205
    endloop
  endfacet
  facet normal 0 -1 0
    outer loop
      vertex 27.232 0.00592041 19
      vertex 30.5 0.00592041 20
      vertex 37.232 0.00592041 36.3205
    endloop
  endfacet
  facet normal 0 -1 -0
    outer loop
      vertex 30.5 0.00592041 20
      vertex 27.232 0.00592041 19
      vertex 32.232 0.00592041 19
    endloop
  endfacet
  facet normal 0 -1 0
    outer loop
      vertex 32.232 0.00592041 36.3205
      vertex 35.5 0.00592041 37.3205
      vertex 30.5 0.00592041 37.3205
    endloop
  endfacet
  facet normal 0 -1 -0
    outer loop
      vertex 32.232 0.00592041 36.3205
      vertex 25.5 0.00592041 20
      vertex 35.5 0.00592041 37.3205
    endloop
  endfacet
  facet normal 0 -1 0
    outer loop
      vertex 22.232 0.00592041 19
      vertex 25.5 0.00592041 20
      vertex 32.232 0.00592041 36.3205
    endloop
  endfacet
  facet normal 0 -1 -0
    outer loop
      vertex 25.5 0.00592041 20
      vertex 22.232 0.00592041 19
      vertex 27.232 0.00592041 19
    endloop
  endfacet
  facet normal 0 -1 0
    outer loop
      vertex 27.232 0.00592041 36.3205
      vertex 30.5 0.00592041 37.3205
      vertex 25.5 0.00592041 37.3205
    endloop
  endfacet
  facet normal 0 -1 -0
    outer loop
      vertex 27.232 0.00592041 36.3205
      vertex 20.5 0.00592041 20
      vertex 30.5 0.00592041 37.3205
    endloop
  endfacet
  facet normal 0 -1 0
    outer loop
      vertex 17.232 0.00592041 19
      vertex 20.5 0.00592041 20
      vertex 27.232 0.00592041 36.3205
    endloop
  endfacet
  facet normal 0 -1 -0
    outer loop
      vertex 20.5 0.00592041 20
      vertex 17.232 0.00592041 19
      vertex 22.232 0.00592041 19
    endloop
  endfacet
  facet normal 0 -1 0
    outer loop
      vertex 22.232 0.00592041 36.3205
      vertex 25.5 0.00592041 37.3205
      vertex 20.5 0.00592041 37.3205
    endloop
  endfacet
  facet normal 0 -1 -0
    outer loop
      vertex 22.232 0.00592041 36.3205
      vertex 15.5 0.00592041 20
      vertex 25.5 0.00592041 37.3205
    endloop
  endfacet
  facet normal 0 -1 0
    outer loop
      vertex 12.232 0.00592041 19
      vertex 15.5 0.00592041 20
      vertex 22.232 0.00592041 36.3205
    endloop
  endfacet
  facet normal 0 -1 -0
    outer loop
      vertex 15.5 0.00592041 20
      vertex 12.232 0.00592041 19
      vertex 17.232 0.00592041 19
    endloop
  endfacet
  facet normal 0 -1 0
    outer loop
      vertex 17.232 0.00592041 36.3205
      vertex 20.5 0.00592041 37.3205
      vertex 15.5 0.00592041 37.3205
    endloop
  endfacet
  facet normal 0 -1 -0
    outer loop
      vertex 17.232 0.00592041 36.3205
      vertex 10.5 0.00592041 20
      vertex 20.5 0.00592041 37.3205
    endloop
  endfacet
  facet normal 0 -1 0
    outer loop
      vertex 7.23205 0.00592041 19
      vertex 10.5 0.00592041 20
      vertex 17.232 0.00592041 36.3205
    endloop
  endfacet
  facet normal 0 -1 -0
    outer loop
      vertex 10.5 0.00592041 20
      vertex 7.23205 0.00592041 19
      vertex 12.232 0.00592041 19
    endloop
  endfacet
  facet normal 0 -1 0
    outer loop
      vertex 20.5 0.00592041 37.3205
      vertex 3.18837 0.00592041 76
      vertex 15.5 0.00592041 37.3205
    endloop
  endfacet
  facet normal 0 -1 0
    outer loop
      vertex 3.18837 0.00592041 76
      vertex 5.5 0.00592041 20
      vertex 15.5 0.00592041 37.3205
    endloop
  endfacet
  facet normal 0 -1 0
    outer loop
      vertex 3.18837 0.00592041 0
      vertex 12.232 0.00592041 19
      vertex 7.23205 0.00592041 19
    endloop
  endfacet
  facet normal 0 -1 -0
    outer loop
      vertex 12.232 0.00592041 19
      vertex 3.18837 0.00592041 0
      vertex 17.232 0.00592041 19
    endloop
  endfacet
  facet normal 0 -1 -0
    outer loop
      vertex 17.232 0.00592041 19
      vertex 3.18837 0.00592041 0
      vertex 22.232 0.00592041 19
    endloop
  endfacet
  facet normal 0 -1 0
    outer loop
      vertex 44.1884 0.00592041 0
      vertex 22.232 0.00592041 19
      vertex 3.18837 0.00592041 0
    endloop
  endfacet
  facet normal 0 -1 0
    outer loop
      vertex 22.232 0.00592041 19
      vertex 44.1884 0.00592041 0
      vertex 27.232 0.00592041 19
    endloop
  endfacet
  facet normal 0 -1 -0
    outer loop
      vertex 5.5 0.00592041 20
      vertex 3.18837 0.00592041 0
      vertex 7.23205 0.00592041 19
    endloop
  endfacet
  facet normal 0 -1 0
    outer loop
      vertex 3.18837 0.00592041 0
      vertex 5.5 0.00592041 20
      vertex 3.18837 0.00592041 76
    endloop
  endfacet
  facet normal 0 -1 0
    outer loop
      vertex 25.5 0.00592041 37.3205
      vertex 3.18837 0.00592041 76
      vertex 20.5 0.00592041 37.3205
    endloop
  endfacet
  facet normal 0 -1 0
    outer loop
      vertex 3.18837 0.00592041 76
      vertex 25.5 0.00592041 37.3205
      vertex 44.1884 0.00592041 76
    endloop
  endfacet
  facet normal 0 -1 0
    outer loop
      vertex 30.5 0.00592041 37.3205
      vertex 44.1884 0.00592041 76
      vertex 25.5 0.00592041 37.3205
    endloop
  endfacet
  facet normal 0 -1 0
    outer loop
      vertex 35.5 0.00592041 37.3205
      vertex 44.1884 0.00592041 76
      vertex 30.5 0.00592041 37.3205
    endloop
  endfacet
  facet normal 0 -1 0
    outer loop
      vertex 40.5 0.00592041 37.3205
      vertex 44.1884 0.00592041 76
      vertex 35.5 0.00592041 37.3205
    endloop
  endfacet
  facet normal 0 -1 0
    outer loop
      vertex 42.232 0.00592041 36.3205
      vertex 44.1884 0.00592041 76
      vertex 40.5 0.00592041 37.3205
    endloop
  endfacet
  facet normal 0 -1 0
    outer loop
      vertex 42.232 0.00592041 36.3205
      vertex 44.1884 0.00592041 0
      vertex 44.1884 0.00592041 76
    endloop
  endfacet
  facet normal 0 -1 0
    outer loop
      vertex 32.232 0.00592041 19
      vertex 44.1884 0.00592041 0
      vertex 42.232 0.00592041 36.3205
    endloop
  endfacet
  facet normal 0 -1 0
    outer loop
      vertex 27.232 0.00592041 19
      vertex 44.1884 0.00592041 0
      vertex 32.232 0.00592041 19
    endloop
  endfacet
  facet normal 0.809015 -0.587788 0
    outer loop
      vertex 46.1869 0.94636 76
      vertex 46.6289 1.55474 0
      vertex 46.6289 1.55474 76
    endloop
  endfacet
  facet normal 0.809015 -0.587788 0
    outer loop
      vertex 46.6289 1.55474 0
      vertex 46.1869 0.94636 76
      vertex 46.1869 0.94636 0
    endloop
  endfacet
  facet normal -0.309016 0.951057 0
    outer loop
      vertex 2.43786 25.9469 0
      vertex 1.72266 25.7145 76
      vertex 2.43786 25.9469 76
    endloop
  endfacet
  facet normal -0.309016 0.951057 0
    outer loop
      vertex 1.72266 25.7145 76
      vertex 2.43786 25.9469 0
      vertex 1.72266 25.7145 0
    endloop
  endfacet
  facet normal 0.992115 0.125332 0
    outer loop
      vertex 47 23 76
      vertex 46.9058 23.7461 0
      vertex 46.9058 23.7461 76
    endloop
  endfacet
  facet normal 0.992115 0.125332 0
    outer loop
      vertex 46.9058 23.7461 0
      vertex 47 23 76
      vertex 47 23 0
    endloop
  endfacet
  facet normal 0.929777 -0.368123 0
    outer loop
      vertex 46.6289 1.55474 76
      vertex 46.9058 2.25393 0
      vertex 46.9058 2.25393 76
    endloop
  endfacet
  facet normal 0.929777 -0.368123 0
    outer loop
      vertex 46.9058 2.25393 0
      vertex 46.6289 1.55474 76
      vertex 46.6289 1.55474 0
    endloop
  endfacet
  facet normal 0.929777 0.368123 0
    outer loop
      vertex 46.9058 23.7461 76
      vertex 46.6289 24.4453 0
      vertex 46.6289 24.4453 76
    endloop
  endfacet
  facet normal 0.929777 0.368123 0
    outer loop
      vertex 46.6289 24.4453 0
      vertex 46.9058 23.7461 76
      vertex 46.9058 23.7461 0
    endloop
  endfacet
  facet normal 0.425781 -0.904826 0
    outer loop
      vertex 44.9271 0.146831 0
      vertex 45.6075 0.467017 76
      vertex 44.9271 0.146831 76
    endloop
  endfacet
  facet normal 0.425781 -0.904826 0
    outer loop
      vertex 45.6075 0.467017 76
      vertex 44.9271 0.146831 0
      vertex 45.6075 0.467017 0
    endloop
  endfacet
  facet normal 0.18738 -0.982287 0
    outer loop
      vertex 44.1884 0.00592041 0
      vertex 44.9271 0.146831 76
      vertex 44.1884 0.00592041 76
    endloop
  endfacet
  facet normal 0.18738 -0.982287 0
    outer loop
      vertex 44.9271 0.146831 76
      vertex 44.1884 0.00592041 0
      vertex 44.9271 0.146831 0
    endloop
  endfacet
  facet normal 0.637424 -0.770513 0
    outer loop
      vertex 45.6075 0.467017 0
      vertex 46.1869 0.94636 76
      vertex 45.6075 0.467017 76
    endloop
  endfacet
  facet normal 0.637424 -0.770513 0
    outer loop
      vertex 46.1869 0.94636 76
      vertex 45.6075 0.467017 0
      vertex 46.1869 0.94636 0
    endloop
  endfacet
  facet normal -0.535826 -0.844328 0
    outer loop
      vertex 1.08773 0.68846 0
      vertex 1.72266 0.28552 76
      vertex 1.08773 0.68846 76
    endloop
  endfacet
  facet normal -0.535826 -0.844328 -0
    outer loop
      vertex 1.72266 0.28552 76
      vertex 1.08773 0.68846 0
      vertex 1.72266 0.28552 0
    endloop
  endfacet
  facet normal -0.968583 0.24869 0
    outer loop
      vertex 0.0236568 23.376 0
      vertex 0.210671 24.1044 76
      vertex 0.210671 24.1044 0
    endloop
  endfacet
  facet normal -0.968583 0.24869 0
    outer loop
      vertex 0.210671 24.1044 76
      vertex 0.0236568 23.376 0
      vertex 0.0236568 23.376 76
    endloop
  endfacet
  facet normal 0.187381 0.982287 -0
    outer loop
      vertex 44.9271 25.8532 0
      vertex 44.1884 25.9941 76
      vertex 44.9271 25.8532 76
    endloop
  endfacet
  facet normal 0.187381 0.982287 0
    outer loop
      vertex 44.1884 25.9941 76
      vertex 44.9271 25.8532 0
      vertex 44.1884 25.9941 0
    endloop
  endfacet
  facet normal 0.425781 0.904826 -0
    outer loop
      vertex 45.6075 25.533 0
      vertex 44.9271 25.8532 76
      vertex 45.6075 25.533 76
    endloop
  endfacet
  facet normal 0.425781 0.904826 0
    outer loop
      vertex 44.9271 25.8532 76
      vertex 45.6075 25.533 0
      vertex 44.9271 25.8532 0
    endloop
  endfacet
  facet normal 0 1 -0
    outer loop
      vertex 44.1884 25.9941 0
      vertex 3.18837 25.9941 76
      vertex 44.1884 25.9941 76
    endloop
  endfacet
  facet normal 0 1 0
    outer loop
      vertex 3.18837 25.9941 76
      vertex 44.1884 25.9941 0
      vertex 3.18837 25.9941 0
    endloop
  endfacet
  facet normal -0.0627905 0.998027 0
    outer loop
      vertex 3.18837 25.9941 0
      vertex 2.43786 25.9469 76
      vertex 3.18837 25.9941 76
    endloop
  endfacet
  facet normal -0.0627905 0.998027 0
    outer loop
      vertex 2.43786 25.9469 76
      vertex 3.18837 25.9941 0
      vertex 2.43786 25.9469 0
    endloop
  endfacet
  facet normal -0.728969 -0.684547 0
    outer loop
      vertex 1.08773 0.68846 0
      vertex 0.572949 1.23664 76
      vertex 0.572949 1.23664 0
    endloop
  endfacet
  facet normal -0.728969 -0.684547 0
    outer loop
      vertex 0.572949 1.23664 76
      vertex 1.08773 0.68846 0
      vertex 1.08773 0.68846 76
    endloop
  endfacet
  facet normal 0 0 -1
    outer loop
      vertex 44.1884 0.00592041 0
      vertex 47 3 0
      vertex 46.9058 2.25393 0
    endloop
  endfacet
  facet normal -0 0 -1
    outer loop
      vertex 47 3 0
      vertex 44.1884 0.00592041 0
      vertex 47 23 0
    endloop
  endfacet
  facet normal 0 0 -1
    outer loop
      vertex 44.1884 0.00592041 0
      vertex 46.9058 2.25393 0
      vertex 46.6289 1.55474 0
    endloop
  endfacet
  facet normal 0 0 -1
    outer loop
      vertex 44.1884 25.9941 0
      vertex 47 23 0
      vertex 44.1884 0.00592041 0
    endloop
  endfacet
  facet normal 0 0 -1
    outer loop
      vertex 44.1884 0.00592041 0
      vertex 46.6289 1.55474 0
      vertex 46.1869 0.94636 0
    endloop
  endfacet
  facet normal 0 0 -1
    outer loop
      vertex 47 23 0
      vertex 44.1884 25.9941 0
      vertex 46.9058 23.7461 0
    endloop
  endfacet
  facet normal 0 0 -1
    outer loop
      vertex 44.1884 0.00592041 0
      vertex 46.1869 0.94636 0
      vertex 45.6075 0.467017 0
    endloop
  endfacet
  facet normal 0 0 -1
    outer loop
      vertex 46.9058 23.7461 0
      vertex 44.1884 25.9941 0
      vertex 46.6289 24.4453 0
    endloop
  endfacet
  facet normal 0 0 -1
    outer loop
      vertex 44.1884 0.00592041 0
      vertex 45.6075 0.467017 0
      vertex 44.9271 0.146831 0
    endloop
  endfacet
  facet normal 0 0 -1
    outer loop
      vertex 46.6289 24.4453 0
      vertex 44.1884 25.9941 0
      vertex 46.1869 25.0536 0
    endloop
  endfacet
  facet normal 0 0 -1
    outer loop
      vertex 46.1869 25.0536 0
      vertex 44.1884 25.9941 0
      vertex 45.6075 25.533 0
    endloop
  endfacet
  facet normal 0 0 -1
    outer loop
      vertex 45.6075 25.533 0
      vertex 44.1884 25.9941 0
      vertex 44.9271 25.8532 0
    endloop
  endfacet
  facet normal 0 0 -1
    outer loop
      vertex 3.18837 0.00592041 0
      vertex 44.1884 25.9941 0
      vertex 44.1884 0.00592041 0
    endloop
  endfacet
  facet normal 0 0 -1
    outer loop
      vertex 3.18837 0.00592041 0
      vertex 3.18837 25.9941 0
      vertex 44.1884 25.9941 0
    endloop
  endfacet
  facet normal 0 0 -1
    outer loop
      vertex 0.0236568 2.624 0
      vertex 3.18837 0.00592041 0
      vertex 2.43786 0.0531387 0
    endloop
  endfacet
  facet normal 0 0 -1
    outer loop
      vertex 3.18837 0.00592041 0
      vertex 0.0236568 2.624 0
      vertex 3.18837 25.9941 0
    endloop
  endfacet
  facet normal 0 0 -1
    outer loop
      vertex 0.0236568 2.624 0
      vertex 2.43786 0.0531387 0
      vertex 1.72266 0.28552 0
    endloop
  endfacet
  facet normal 0 0 -1
    outer loop
      vertex 0.0236568 23.376 0
      vertex 3.18837 25.9941 0
      vertex 0.0236568 2.624 0
    endloop
  endfacet
  facet normal 0 0 -1
    outer loop
      vertex 0.0236568 2.624 0
      vertex 1.72266 0.28552 0
      vertex 1.08773 0.68846 0
    endloop
  endfacet
  facet normal 0 0 -1
    outer loop
      vertex 3.18837 25.9941 0
      vertex 0.0236568 23.376 0
      vertex 2.43786 25.9469 0
    endloop
  endfacet
  facet normal 0 0 -1
    outer loop
      vertex 0.0236568 2.624 0
      vertex 1.08773 0.68846 0
      vertex 0.572949 1.23664 0
    endloop
  endfacet
  facet normal 0 0 -1
    outer loop
      vertex 2.43786 25.9469 0
      vertex 0.0236568 23.376 0
      vertex 1.72266 25.7145 0
    endloop
  endfacet
  facet normal 0 0 -1
    outer loop
      vertex 0.0236568 2.624 0
      vertex 0.572949 1.23664 0
      vertex 0.210671 1.89563 0
    endloop
  endfacet
  facet normal 0 0 -1
    outer loop
      vertex 1.72266 25.7145 0
      vertex 0.0236568 23.376 0
      vertex 1.08773 25.3115 0
    endloop
  endfacet
  facet normal 0 0 -1
    outer loop
      vertex 1.08773 25.3115 0
      vertex 0.0236568 23.376 0
      vertex 0.572949 24.7634 0
    endloop
  endfacet
  facet normal 0 0 -1
    outer loop
      vertex 0.572949 24.7634 0
      vertex 0.0236568 23.376 0
      vertex 0.210671 24.1044 0
    endloop
  endfacet
  facet normal -0.0627905 -0.998027 0
    outer loop
      vertex 2.43786 0.0531387 0
      vertex 3.18837 0.00592041 76
      vertex 2.43786 0.0531387 76
    endloop
  endfacet
  facet normal -0.0627905 -0.998027 -0
    outer loop
      vertex 3.18837 0.00592041 76
      vertex 2.43786 0.0531387 0
      vertex 3.18837 0.00592041 0
    endloop
  endfacet
  facet normal -0.876307 0.481754 0
    outer loop
      vertex 0.210671 24.1044 0
      vertex 0.572949 24.7634 76
      vertex 0.572949 24.7634 0
    endloop
  endfacet
  facet normal -0.876307 0.481754 0
    outer loop
      vertex 0.572949 24.7634 76
      vertex 0.210671 24.1044 0
      vertex 0.210671 24.1044 76
    endloop
  endfacet
  facet normal -0.728968 0.684548 0
    outer loop
      vertex 0.572949 24.7634 0
      vertex 1.08773 25.3115 76
      vertex 1.08773 25.3115 0
    endloop
  endfacet
  facet normal -0.728968 0.684548 0
    outer loop
      vertex 1.08773 25.3115 76
      vertex 0.572949 24.7634 0
      vertex 0.572949 24.7634 76
    endloop
  endfacet
  facet normal -0.535828 0.844327 0
    outer loop
      vertex 1.72266 25.7145 0
      vertex 1.08773 25.3115 76
      vertex 1.72266 25.7145 76
    endloop
  endfacet
  facet normal -0.535828 0.844327 0
    outer loop
      vertex 1.08773 25.3115 76
      vertex 1.72266 25.7145 0
      vertex 1.08773 25.3115 0
    endloop
  endfacet
  facet normal 0.809015 0.587788 0
    outer loop
      vertex 46.6289 24.4453 76
      vertex 46.1869 25.0536 0
      vertex 46.1869 25.0536 76
    endloop
  endfacet
  facet normal 0.809015 0.587788 0
    outer loop
      vertex 46.1869 25.0536 0
      vertex 46.6289 24.4453 76
      vertex 46.6289 24.4453 0
    endloop
  endfacet
  facet normal 0.637423 0.770514 -0
    outer loop
      vertex 46.1869 25.0536 0
      vertex 45.6075 25.533 76
      vertex 46.1869 25.0536 76
    endloop
  endfacet
  facet normal 0.637423 0.770514 0
    outer loop
      vertex 45.6075 25.533 76
      vertex 46.1869 25.0536 0
      vertex 45.6075 25.533 0
    endloop
  endfacet
  facet normal -0.876307 -0.481753 0
    outer loop
      vertex 0.572949 1.23664 0
      vertex 0.210671 1.89563 76
      vertex 0.210671 1.89563 0
    endloop
  endfacet
  facet normal -0.876307 -0.481753 0
    outer loop
      vertex 0.210671 1.89563 76
      vertex 0.572949 1.23664 0
      vertex 0.572949 1.23664 76
    endloop
  endfacet
  facet normal -0.309017 -0.951056 0
    outer loop
      vertex 1.72266 0.28552 0
      vertex 2.43786 0.0531387 76
      vertex 1.72266 0.28552 76
    endloop
  endfacet
  facet normal -0.309017 -0.951056 -0
    outer loop
      vertex 2.43786 0.0531387 76
      vertex 1.72266 0.28552 0
      vertex 2.43786 0.0531387 0
    endloop
  endfacet
  facet normal 1 -0 0
    outer loop
      vertex 3 3 76
      vertex 3 23 11
      vertex 3 23 76
    endloop
  endfacet
  facet normal 1 0 0
    outer loop
      vertex 3 23 11
      vertex 3 3 76
      vertex 3 3 11
    endloop
  endfacet
  facet normal -1 0 0
    outer loop
      vertex 44 3 11
      vertex 44 23 76
      vertex 44 23 11
    endloop
  endfacet
  facet normal -1 -0 0
    outer loop
      vertex 44 23 76
      vertex 44 3 11
      vertex 44 3 76
    endloop
  endfacet
  facet normal -0 0 1
    outer loop
      vertex 8 23 3
      vertex 39 3 3
      vertex 39 23 3
    endloop
  endfacet
  facet normal 0 0 1
    outer loop
      vertex 39 3 3
      vertex 8 23 3
      vertex 8 3 3
    endloop
  endfacet
  facet normal 0 -1 0
    outer loop
      vertex 8 23 3
      vertex 39 23 11
      vertex 8 23 11
    endloop
  endfacet
  facet normal 0 -1 -0
    outer loop
      vertex 39 23 11
      vertex 8 23 3
      vertex 39 23 3
    endloop
  endfacet
  facet normal 0 -1 0
    outer loop
      vertex 8 23 11
      vertex 3 23 76
      vertex 3 23 11
    endloop
  endfacet
  facet normal 0 -1 0
    outer loop
      vertex 3 23 76
      vertex 8 23 11
      vertex 44 23 76
    endloop
  endfacet
  facet normal 0 -1 0
    outer loop
      vertex 39 23 11
      vertex 44 23 76
      vertex 8 23 11
    endloop
  endfacet
  facet normal 0 -1 -0
    outer loop
      vertex 44 23 76
      vertex 39 23 11
      vertex 44 23 11
    endloop
  endfacet
  facet normal -0 0 1
    outer loop
      vertex 3 23 11
      vertex 8 3 11
      vertex 8 23 11
    endloop
  endfacet
  facet normal 0 0 1
    outer loop
      vertex 8 3 11
      vertex 3 23 11
      vertex 3 3 11
    endloop
  endfacet
  facet normal 1 -0 0
    outer loop
      vertex 8 3 11
      vertex 8 23 3
      vertex 8 23 11
    endloop
  endfacet
  facet normal 1 0 0
    outer loop
      vertex 8 23 3
      vertex 8 3 11
      vertex 8 3 3
    endloop
  endfacet
  facet normal -1 0 0
    outer loop
      vertex 39 3 3
      vertex 39 23 11
      vertex 39 23 3
    endloop
  endfacet
  facet normal -1 -0 0
    outer loop
      vertex 39 23 11
      vertex 39 3 3
      vertex 39 3 11
    endloop
  endfacet
  facet normal -0 0 1
    outer loop
      vertex 39 23 11
      vertex 44 3 11
      vertex 44 23 11
    endloop
  endfacet
  facet normal 0 0 1
    outer loop
      vertex 44 3 11
      vertex 39 23 11
      vertex 39 3 11
    endloop
  endfacet
endsolid OpenSCAD_Model
